<?xml version="1.0" standalone="no"?>
<!DOCTYPE svg PUBLIC "-//W3C//DTD SVG 20010904//EN"
 "http://www.w3.org/TR/2001/REC-SVG-20010904/DTD/svg10.dtd">
<svg version="1.0" xmlns="http://www.w3.org/2000/svg"
 width="512.000000pt" height="512.000000pt" viewBox="0 0 512.000000 512.000000"
 preserveAspectRatio="xMidYMid meet">

<g transform="translate(0.000000,512.000000) scale(0.100000,-0.100000)"
fill="#000000" stroke="none">
<path d="M3520 4539 c-58 -26 -105 -72 -138 -134 l-27 -50 0 -510 c0 -463 2
-514 17 -548 30 -66 76 -115 136 -144 l57 -28 405 -5 405 -5 196 -147 c206
-156 226 -165 270 -129 23 18 24 27 27 150 l4 131 26 6 c54 13 121 54 156 96
66 77 67 86 64 644 l-3 499 -29 53 c-17 30 -47 67 -67 83 -76 60 -59 59 -788
59 -648 0 -667 -1 -711 -21z m1408 -163 l37 -34 3 -484 c2 -445 1 -486 -15
-518 -23 -44 -73 -70 -137 -70 -37 0 -56 -5 -73 -22 -21 -19 -23 -30 -23 -110
0 -48 -2 -88 -5 -88 -3 0 -70 48 -148 108 l-142 107 -422 5 -422 5 -30 29
c-17 17 -36 46 -41 65 -13 49 -13 904 0 953 6 20 24 48 41 62 l31 26 654 0
654 0 38 -34z"/>
<path d="M3902 4217 c-29 -31 -28 -72 3 -102 l24 -25 400 0 c276 0 408 4 425
11 51 23 55 103 7 128 -13 7 -159 11 -429 11 l-409 0 -21 -23z"/>
<path d="M3706 3899 c-33 -26 -36 -79 -6 -109 19 -19 33 -20 531 -20 340 0
517 4 530 11 48 25 44 105 -7 128 -18 8 -174 11 -523 11 -489 0 -499 0 -525
-21z"/>
<path d="M3700 3570 c-25 -25 -26 -71 -1 -101 l19 -24 415 0 c394 0 416 1 436
19 27 25 29 86 3 109 -17 15 -62 17 -435 17 -404 0 -418 -1 -437 -20z"/>
<path d="M373 3156 c-85 -21 -164 -66 -229 -131 -123 -122 -171 -288 -129
-450 45 -170 190 -312 358 -350 l52 -11 156 -448 c169 -484 172 -491 262 -537
l37 -19 0 -305 c0 -292 1 -306 20 -325 18 -18 33 -20 165 -20 132 0 147 2 165
20 11 11 20 24 20 30 0 5 20 138 45 296 25 157 45 288 45 290 0 2 491 4 1090
4 l1091 0 24 25 c32 31 33 74 2 103 l-23 22 -1302 0 -1301 0 -26 23 c-21 17
-58 113 -185 479 -88 252 -164 467 -170 477 -11 22 -23 26 -95 36 -112 15
-202 77 -256 177 -30 57 -33 71 -34 148 0 69 5 94 23 131 37 75 87 125 159
161 58 28 79 33 163 36 105 5 146 -7 174 -51 8 -12 116 -314 240 -671 124
-356 233 -657 242 -667 16 -17 34 -19 214 -19 174 0 200 2 219 18 30 24 31 76
2 105 -20 20 -34 22 -177 27 l-156 5 -44 123 -43 122 1343 0 c1298 0 1345 1
1367 19 28 23 32 83 6 109 -16 15 -59 17 -498 22 l-481 5 -99 211 c-129 272
-181 333 -338 396 l-56 23 -760 5 -759 5 -40 115 c-35 101 -46 121 -91 166
-66 67 -118 84 -244 83 -53 0 -119 -6 -148 -13z m2036 -521 c61 -21 127 -70
159 -118 24 -35 172 -338 172 -353 0 -2 -365 -3 -811 -2 l-811 3 -84 240 c-46
132 -83 241 -84 243 0 1 319 2 709 2 595 0 715 -2 750 -15z m-1223 -1462 c-3
-16 -19 -116 -36 -223 -40 -262 -33 -240 -80 -240 l-40 0 0 245 0 245 81 0 81
0 -6 -27z"/>
<path d="M4137 2140 c-34 -27 -37 -78 -6 -106 20 -18 46 -19 428 -24 l406 -5
0 -120 0 -120 -1551 -5 c-1508 -5 -1552 -6 -1573 -24 -25 -22 -28 -73 -7 -102
14 -19 44 -19 1473 -24 l1458 -5 0 -102 c0 -93 -2 -105 -23 -125 l-23 -23
-455 -5 -456 -5 -20 -25 c-14 -17 -18 -33 -14 -54 12 -60 15 -61 274 -66 l237
-5 47 -298 c34 -221 51 -303 64 -318 15 -17 32 -19 164 -19 137 0 148 1 166
21 18 20 19 42 22 325 l3 304 32 16 c45 23 85 63 110 109 17 32 22 62 25 158
l4 117 35 0 c47 0 102 32 133 77 23 34 25 46 28 179 4 166 -9 211 -74 260
l-37 29 -422 3 c-415 3 -422 2 -448 -18z m463 -1185 l0 -245 -45 0 c-25 0 -45
4 -45 10 0 5 -16 109 -35 230 -19 121 -35 227 -35 235 0 12 16 15 80 15 l80 0
0 -245z"/>
</g>
</svg>
