<?xml version="1.0" ?><!DOCTYPE svg  PUBLIC '-//W3C//DTD SVG 1.1//EN'  'http://www.w3.org/Graphics/SVG/1.1/DTD/svg11.dtd'><svg enable-background="new 0 0 128 128" id="Layer_1" version="1.1" viewBox="0 0 128 128" xml:space="preserve" xmlns="http://www.w3.org/2000/svg" xmlns:xlink="http://www.w3.org/1999/xlink"><g><g><g><path d="M29.898,96.277" fill="#313638"/></g></g><g><g><path d="M85.075,35.846c4.204-1.248,8.292-2.871,12.219-4.856c-0.25-0.251-0.512-0.491-0.768-0.736     c-3.796,1.895-7.74,3.451-11.795,4.651C84.844,35.219,84.965,35.531,85.075,35.846z" fill="#313638"/></g></g><g><g><path d="M43.622,35.007c-4.187-1.216-8.26-2.808-12.173-4.764c-0.256,0.246-0.521,0.486-0.771,0.737     c4.046,2.047,8.263,3.705,12.6,4.969C43.387,35.633,43.509,35.321,43.622,35.007z" fill="#313638"/></g></g><g><g><path d="M63,38.882v-1c-6.273-0.085-12.452-0.967-18.411-2.608c-0.113,0.314-0.235,0.627-0.344,0.942     C50.314,37.895,56.609,38.797,63,38.882z" fill="#313638"/></g></g><g><g><path d="M64.268,38.896c6.764-0.024,13.429-0.974,19.84-2.781c-0.11-0.315-0.231-0.628-0.345-0.942     c-6.302,1.77-12.851,2.7-19.498,2.724L64,37.9v1L64.268,38.896z" fill="#313638"/></g></g><g><g><path d="M64.266,87.948L64,87.945v1l0.264,0.003c6.718,0.024,13.336,0.973,19.699,2.78     c0.109-0.316,0.218-0.631,0.323-0.948C77.82,88.939,71.093,87.973,64.266,87.948z" fill="#313638"/></g></g><g><g><path d="M44.072,90.677c0.104,0.317,0.211,0.633,0.319,0.949c6.02-1.677,12.267-2.578,18.61-2.663v-1     C56.548,88.049,50.194,88.968,44.072,90.677z" fill="#313638"/></g></g><g><g><path d="M84.927,92.002c4.288,1.282,8.45,2.965,12.443,5.024c0.244-0.246,0.478-0.502,0.717-0.753     c-4.116-2.143-8.412-3.892-12.84-5.218C85.143,91.371,85.035,91.686,84.927,92.002z" fill="#313638"/></g></g><g><g><path d="M43.107,90.944c-4.558,1.34-8.977,3.128-13.209,5.333c0.238,0.251,0.474,0.505,0.718,0.751     c4.107-2.119,8.393-3.839,12.808-5.134C43.316,91.578,43.211,91.261,43.107,90.944z" fill="#313638"/></g></g><g><g><path d="M83.963,91.728c-2.135,6.21-4.98,12.179-8.496,17.804c0.478-0.12,0.95-0.253,1.422-0.388     c3.305-5.435,5.993-11.18,8.038-17.142C84.607,91.906,84.285,91.819,83.963,91.728z" fill="#313638"/></g></g><g><g><path d="M84.731,34.905c-1.953-5.418-4.468-10.717-7.562-15.873c-0.475-0.139-0.948-0.28-1.429-0.405     c3.304,5.367,5.98,10.889,8.024,16.545C84.085,35.082,84.41,35,84.731,34.905z" fill="#313638"/></g></g><g><g><path d="M88.699,62.979l0.004,0.318c0,0.235-0.011,0.468-0.013,0.703h1c0.002-0.235,0.013-0.468,0.013-0.703     l-0.004-0.32c-0.033-9.305-1.584-18.375-4.625-27.131c-0.321,0.095-0.645,0.178-0.967,0.269     C87.126,44.786,88.667,53.766,88.699,62.979z" fill="#313638"/></g></g><g><g><path d="M84.286,90.78c0.321,0.091,0.643,0.179,0.962,0.275c2.76-8.356,4.255-17.125,4.425-26.054h-1     C88.503,73.835,87.021,82.512,84.286,90.78z" fill="#313638"/></g></g><g><g><path d="M43.424,91.894c2.068,6.053,4.799,11.881,8.164,17.39c0.465,0.127,0.934,0.247,1.405,0.36     c-3.567-5.689-6.45-11.729-8.602-18.018C44.068,91.716,43.745,91.8,43.424,91.894z" fill="#313638"/></g></g><g><g><path d="M39.717,65h-1c0.169,8.89,1.653,17.621,4.39,25.944c0.32-0.094,0.643-0.177,0.964-0.267     C41.358,82.441,39.886,73.799,39.717,65z" fill="#313638"/></g></g><g><g><path d="M44.589,35.274c2.065-5.737,4.781-11.335,8.141-16.774c-0.47,0.115-0.939,0.234-1.405,0.364     c-3.16,5.241-5.724,10.629-7.703,16.142C43.943,35.1,44.267,35.185,44.589,35.274z" fill="#313638"/></g></g><g><g><path d="M39.687,63.297l0.004-0.316c0.033-9.177,1.56-18.125,4.555-26.764c-0.323-0.089-0.646-0.174-0.967-0.268     c-3.017,8.724-4.555,17.76-4.587,27.03l-0.004,0.318c0,0.235,0.011,0.468,0.013,0.703h1     C39.697,63.765,39.687,63.532,39.687,63.297z" fill="#313638"/></g></g><g><g><path d="M63,65v22.963c0.334-0.004,0.666-0.018,1-0.018V65H63z" fill="#313638"/></g></g><g><g><path d="M63,88.963v21.968c0.332,0.007,0.661,0.069,0.994,0.069H64V88.945C63.666,88.945,63.333,88.959,63,88.963     z" fill="#313638"/></g></g><g><g><path d="M64,64V38.9c-0.334,0-0.667-0.013-1-0.018V64H64z" fill="#313638"/></g></g><g><g><path d="M64,37.9V17.139c-0.334,0-0.667,0.012-1,0.019v20.725C63.333,37.887,63.666,37.9,64,37.9z" fill="#313638"/></g></g><g><g><path d="M38.699,64H17.001c0,0.016-0.001,0.031-0.001,0.047c0,0.32,0.018,0.635,0.024,0.953h21.693     C38.711,64.667,38.702,64.334,38.699,64z" fill="#313638"/></g></g><g><g><path d="M89.673,65h21.303c0.006-0.318,0.024-0.633,0.024-0.952c0-0.016-0.001-0.032-0.001-0.048H89.69     C89.688,64.334,89.679,64.667,89.673,65z" fill="#313638"/></g></g><g><g><path d="M63,64H39.699c0.003,0.334,0.011,0.667,0.018,1H63V64z" fill="#313638"/></g></g><g><g><path d="M64,65h24.673c0.006-0.333,0.015-0.666,0.018-1H64V65z" fill="#313638"/></g></g><g><g><path d="M64,114.956c-28.121,0-51-22.838-51-50.909c0-16.565,8.118-32.148,21.715-41.684     C43.32,16.328,53.447,13.138,64,13.138l0.115,0.002C92.204,13.24,115,36.077,115,64.048s-22.796,50.807-50.814,50.905L64,114.956     z M64.061,15.139c-10.204,0-19.932,3.064-28.197,8.861C22.8,33.162,15,48.133,15,64.047c0,26.969,21.981,48.909,49,48.909v1     l0.079-1.001l0.103-0.002C91.099,112.858,113,90.92,113,64.048S91.099,15.236,64.178,15.141l-0.111-0.002     C64.064,15.139,64.062,15.139,64.061,15.139z" fill="#313638"/></g></g></g></svg>