<?xml version="1.0" ?><!DOCTYPE svg  PUBLIC '-//W3C//DTD SVG 1.1//EN'  'http://www.w3.org/Graphics/SVG/1.1/DTD/svg11.dtd'><svg enable-background="new 0 0 128 128" id="Layer_1" version="1.1" viewBox="0 0 128 128" xml:space="preserve" xmlns="http://www.w3.org/2000/svg" xmlns:xlink="http://www.w3.org/1999/xlink"><g><g><g><g><g><g><rect fill="#313638" height="2.001" transform="matrix(0.7057 0.7085 -0.7085 0.7057 26.7933 -15.5862)" width="6.836" x="28.739" y="23.456"/></g></g><g><g><rect fill="#313638" height="2.001" transform="matrix(0.7056 0.7086 -0.7086 0.7056 90.8459 -41.8781)" width="5.791" x="92.926" y="87.389"/></g></g></g><g><g><g><rect fill="#313638" height="8.987" width="2" x="62.299" y="104.513"/></g></g></g><g><g><path d="M64.881,105.513c-27.423,0-49.733-22.311-49.733-49.734c0-15.173,6.808-29.327,18.677-38.832       l1.25,1.561c-11.393,9.124-17.927,22.709-17.927,37.271c0,26.321,21.413,47.734,47.733,47.734       c14.563,0,28.148-6.534,37.272-17.928l1.561,1.25C94.209,98.705,80.055,105.513,64.881,105.513z" fill="#313638"/></g></g><g><rect fill="#313638" height="2" width="41.772" x="43.046" y="112.5"/></g></g></g><g><g><g><path d="M65.831,98.007c-23.585,0-42.772-19.153-42.772-42.695c0-13.894,6.809-26.963,18.212-34.959      c7.217-5.062,15.71-7.737,24.561-7.737l0.155,0.002c23.498,0.084,42.616,19.236,42.616,42.694      c0,23.459-19.118,42.611-42.616,42.693L65.831,98.007z M65.831,13.615v1c-8.438,0-16.533,2.55-23.412,7.374      c-10.87,7.623-17.36,20.08-17.36,33.322c0,22.439,18.29,40.695,40.772,40.695v1l0.056-1.001      c22.492-0.079,40.716-18.334,40.716-40.694c0-22.359-18.224-40.614-40.624-40.694L65.831,13.615z" fill="#313638"/></g></g><g><g><path d="M65.889,97.544c-23.33,0-42.311-18.963-42.311-42.271c0-5.734,1.137-11.301,3.378-16.544l0.96-2.245      v4.504l1.736,0.834v3.483l1.478,2.517l0.638,0.099l0.053-0.299l-1.566-2.507l-0.385-2.959h1.932l0.447,2.774l2.424,3.529      l-0.603,1.094l1.195,1.829l2.838,0.701v-0.526l2.52,0.357l-0.14,1.061l0.678,0.124l1.958,0.534l2.466,2.808l1.601,0.121      l-1.656-0.281l-0.241-3.756l-2.728-0.464l1.208-2.281l-0.051-0.192l-2.769,1.85l-2.474-0.3l-0.911-1.989l0.529-1.903l1.186-2.18      l2.799-1.416l5.556-0.002l-0.017,1.685l0.726,0.337l-0.107-1.958l1.515-1.507l2.392-1.568l0.164-1.127l2.801-2.878l2.09-1.156      l-0.111-0.092l2.422-2.277V31.97l0.737-0.602l1.289,0.042l0.586,0.255l0.208,0.42l0.401,0.094l0.847-0.13l0.227-0.784l1.575,0.4      v0.078l0.92-0.312l0.038-0.824l-1.569-0.956l-0.083-1.965l-1.605,0.789h-1.476l0.222-1.991l-2.32-0.546l-0.846,0.638v2.956      l-2.358,0.746l-0.907,1.89l-1.8,0.29v-2.519l-1.856-0.304l-1.202-0.782l-0.569-2.088l4.163-2.42l2.38-0.722l0.201,1.347      l0.146-0.008l0.074-0.579l0.571-0.082l-0.185-1.137l0.746-0.062l-1.35-0.205l-0.39-1.692l0.856-0.775l-1.487-0.073L55.213,20.5      l-0.051,0.137l0.954,0.161l-0.388,1.924L53.89,22.83l-0.285,0.703l-3.383,0.094l-0.023-0.489      c-0.017-0.331-0.045-0.717-0.074-0.981h-0.099l-0.008-0.496c-0.002-0.281-0.003-0.403,0.45-0.464l-0.457-0.025l-1.102-1.516      h-1.941l-1.127,0.84h1.123l0.389,1.248l1.696,0.047l0.812,1.921l-3.995-0.146l-0.15-0.761l-0.726-0.127l0.025-0.024      l-0.886-0.213l-0.824-0.456l-3.535,0.028l1.26-0.917C48.308,15.799,56.903,13,65.888,13      c10.337,0.023,20.223,3.773,27.934,10.561l0.304,0.267l-0.782,1.395l-1.986,0.779l-0.567,0.614l0.078,0.426l0.923,0.129      l0.522,1.302l1.843-0.742l0.455,3.206h-1.094l-1.404-0.202l-1.28,0.215l-1.514,2.137L87.303,33.4l-0.174,1.032l0.936,0.22      l-0.472,2.149l-2.528-0.507l-1.604,0.351l-0.273,0.721l0.283,1.902l0.812,0.379l1.824-0.011l0.956-0.089l0.36-0.876l2.238-2.906      l1.402,0.288l1.746-1.577l0.412,1.548l0.939,0.634l-0.835-2.347h2.726l0.723,0.717l1.7,1.46l0.066,1.654l0.864,0.919l0.43-1.685      l1.965-1.072l0.273,2.507l0.831,0.911l2.303-0.039l0.126,0.325c0.429,1.102,0.813,2.229,1.145,3.35l0.089,0.299l-0.607,0.557      h-3.693l-2.014-1.494l-1.492,0.145v1.35h-1.338l-0.783-0.559l-3.987-1.011V40.4l-4.049,0.315l-1.474,0.79h-1.988l-0.808-0.078      l-1.867,1.036v2.322l-4.55,3.279l0.193,0.719h1.152l-0.402,2.227l-0.604,0.222l-0.026,3.005l3.719,4.232h1.165l0.104-0.277      h3.277l0.901-0.833h2.176l0.993,0.993l2.96,0.309l-0.381,3.845l2.99,5.271l-1.605,3.066l0.079,1.061l1.234,1.228v3.382      l1.595,2.147v2.442h1.932l-0.665,0.815c-8.069,9.9-19.994,15.596-32.719,15.624L65.889,97.544z M26.916,41.58      c-1.553,4.388-2.338,8.982-2.338,13.692c0,22.757,18.532,41.271,41.311,41.271v0.5l0.039-0.5      c12.122-0.028,23.458-5.277,31.318-14.44h-0.81v-3.112l-1.595-2.147v-3.296l-1.203-1.196l-0.13-1.719l1.486-2.836l-2.879-5.074      l0.314-3.171l-2.323-0.242l-0.95-0.95h-1.371l-0.901,0.833h-2.977l-0.104,0.277h-2.31l-4.27-4.859l0.036-4.079l0.716-0.263      l0.088-0.484h-0.721l-0.574-2.125l4.696-3.385v-2.398l2.387-1.325l-1.292-0.604l-0.4-2.691l0.559-1.471l2.336-0.511l1.772,0.354      l0.05-0.228l-0.891-0.21l0.451-2.667l2.309-0.36l1.51-2.133l1.846-0.309l1.354,0.199l-0.111-0.787l-1.587,0.641l-0.681-1.694      l-1.065-0.148l-0.295-1.627l1.06-1.151l1.869-0.732l0.211-0.376c-7.483-6.458-17.011-10.022-26.875-10.044      c-0.001,0-0.004,0-0.005,0c-6.772,0-13.269,1.596-19.127,4.654h2.569l1.121,1.543l1.389,0.078l1.207-1.171l1.289,0.643      l0.022-0.061l1.118-0.34l4.073,0.202l-0.272,0.247l0.721-0.34l2.848-0.328l4.346,1.925v1.427l1.495,0.371l-1.068,2.012h-1.729      l-0.513,1.323l0.149-0.073l0.126,2.961l1.618,0.987l-0.097,2.096l-1.203,0.41l1.648,0.75L67.646,35.1l-1.463,0.126l-0.021-0.188      l-2.317-0.712l-0.082-0.628h-1.172l0.909-0.627l-0.163,0.025l-1.653,0.724l-1.025,1.135l-0.574-0.719l-0.251-0.066l-1.235,1.161      l0.37,0.305l-3.312,1.833l-2.407,2.502l-0.184,1.254l-2.724,1.786l-1.083,1.09l0.174,3.177l-2.821-1.312l0.013-1.319      l-4.308,0.002l-2.307,1.168l-1.01,1.854l-0.375,1.389l0.526,1.151l1.55,0.188l3.625-2.422l0.509,1.925l-0.743,1.404l2.144,0.364      l0.241,3.756l2.669,0.453l2.125-2.456l3.05,0.619l0.857,1.19l1.764-0.104l0.097-1.02l2.13,1.036l1.461,2.285l2.654,0.037      l1.174,2.049l0.125,1.876l2.537,0.966l3.868,0.038l1.128,1.844l1.885,0.604l-0.434,2.016l-1.771,2.249l-0.528,5.093      l-1.922,1.519l-2.281-0.067l-0.56,0.97l0.609,2.636l-2.754,3.519l-0.865,1.602l-2.771,1.306l-0.993,0.15l0.937,0.269      l-0.251,1.351L59.6,88.239l0.196,0.246l1.527,0.043l-0.136,1.604L60.86,91.07l-0.049,0.391l1.873,1.576l-0.449,1.476      l-3.047-0.058l-2.72-2.408l-2.006-3.521l0.268-3.234l-1.476-1.968l0.549-3.063l-0.796-0.224v-7.279      c-0.94-0.709-1.944-1.444-2.213-1.605c-0.158-0.027-0.496-0.104-1.273-0.314l-0.305-0.083l-0.279-1.54l-3.229-4.044l0.363-1.656      l0.103-2.487l2.144-1.497l-0.228-1.897l-2.989-0.226l-2.536-2.89l-1.627-0.444l-1.571-0.286l0.134-1.021l-0.398-0.057v0.651      l-4.459-1.102l-1.74-2.661l0.595-1.08l-0.652-0.95l-0.266,1.489l-2.071-0.319l-1.856-3.161V42.45L26.916,41.58z M59.571,93.463      l1.928,0.036l0.037-0.122l-1.789-1.505l0.146-1.036l0.328-0.969l0.027-0.368l-0.945-0.027l-1.054-1.322l1.24-1.192l0.026-0.142      l-1.11-0.317l0.146-1.494l1.946-0.296l2.272-1.09l0.755-1.387l2.507-3.214l-0.552-2.61l0.067-0.129l0.946-1.642l2.516,0.075      l1.305-1.032l0.515-4.96l1.807-2.296l0.195-0.902l-1.377-0.44l-1.032-1.689l-3.576-0.065l-3.22-1.226l-0.152-2.286l-0.775-1.354      l-2.623-0.037l-1.6-2.502l-0.579-0.282l-0.042,0.438l-3.168,0.188l-0.949-1.319l-2.095-0.426l-2.109,2.44l-0.527-0.089      l0.377,3.136l-2.231,1.558l-0.091,2.08l-0.273,1.273l3.09,3.871l0.211,1.165c0.399,0.105,0.792,0.203,0.884,0.215      c0.161-0.008,0.268-0.005,2.838,1.941l0.198,0.15v7.019l0.94,0.265l-0.633,3.528l1.442,1.923L55.484,88.3l1.812,3.178      L59.571,93.463z M102.596,43.214h2.794c-0.26-0.843-0.549-1.687-0.864-2.519l-2.055,0.035l-1.356-1.485l-0.146-1.347      l-0.271,0.148l-0.773,3.026l-2.366-2.517l-0.006-0.154l-0.353,0.177l0.019,1.301l-1.518,0.634l-1.251-0.273l-1.27-1.804      l1.99,0.107l-2.818-1.9l-0.086-0.326l-0.906,0.818l-1.287-0.265l-1.812,2.354l-0.264,0.682l0.424-0.179l5.231-0.407v2.547      l3.491,0.919l0.617,0.428v-1.258l2.779-0.27L102.596,43.214z M94.913,37.165l1.277,0.861v-0.061l0.085-0.042L94.913,37.165z       M95.017,36.078l2.134,1.215l0.371,0.395l-0.029-0.725l-1.852-1.651h-0.896L95.017,36.078z M64.753,33.559l1.925,0.593      l0.007-0.201l-1.623-0.738l-0.325,0.223L64.753,33.559z M60.506,32.602l0.438,0.146l0.635,0.082l-0.195-0.393l-0.156-0.068      h-0.629l-0.093,0.076V32.602z M52.186,28.735l2.405,0.332v2.216l0.124-0.021l0.868-1.808l2.073-0.656v-2.722l1.617-1.22      l3.641,0.856l-0.196,1.761h0.126l2.446-1.202l-5.636-1.328l3.703-1.972l-0.484-0.411l-2.354,0.297l-1.091,1.132l-0.659,0.056      l0.214,0.088l-0.084,0.976l-1.077,0.154l-0.084,0.653l-1.887,0.098l-0.164-1.099l-1.215,0.368l-3.344,1.957l0.269,0.98      L52.186,28.735z M62.467,24.579l2.336,0.551l0.49-1.267h1.812l0.186-0.35l-1.011-0.252v-1.558l-3.502-1.55l-2.484,0.286      l-1.162,0.606l0.093,1.714l0.645-0.732l0.045,0.018l0.131-0.135l3.139-0.396l1.945,1.647L62.467,24.579z M51.136,22.145      c0.014,0.136,0.024,0.287,0.035,0.455l1.753-0.049l0.276-0.682l1.7-0.101l0.031-0.156l-1.129-0.19l0.198-0.532l-1.258,1.229      l-0.199,0.003C52.544,22.121,51.729,22.135,51.136,22.145z M57.533,22.01l0.655,0.1l-0.064-1.188l-0.697,0.631L57.533,22.01z       M44.549,21.528l1.35,0.292l0.333-0.313l-0.004-0.012h-1.74L44.549,21.528z M46.09,19.062c-1.077,0.592-2.132,1.233-3.161,1.924      l0.587-0.005L46.09,19.062z" fill="#313638"/></g></g></g></g></svg>