<?xml version="1.0" ?><!DOCTYPE svg  PUBLIC '-//W3C//DTD SVG 1.1//EN'  'http://www.w3.org/Graphics/SVG/1.1/DTD/svg11.dtd'><svg enable-background="new 0 0 520 520" height="520px" id="Layer_1" version="1.1" viewBox="0 0 520 520" width="520px" xml:space="preserve" xmlns="http://www.w3.org/2000/svg" xmlns:xlink="http://www.w3.org/1999/xlink"><g><path d="M176.433,259.066c0.234-5.301,0.738-10.841,1.521-16.614v0.234c0.622-6.552,1.638-13.298,3.042-20.241   c1.404-6.939,3.353-13.689,5.85-20.241c2.493-6.552,5.616-12.753,9.36-18.603s8.267-10.881,13.572-15.093   c2.34-1.714,4.991-3.313,7.956-4.797c2.962-1.48,6.939-2.223,11.934-2.223v0.234h18.954c0.936,0,1.909,0.351,2.925,1.053   c1.013,0.702,1.872,1.562,2.574,2.574c0.702,1.016,1.287,2.106,1.755,3.276c0.468,1.17,0.702,2.146,0.702,2.925v51.012   c0,0.936-0.234,1.953-0.702,3.042c-0.468,1.093-1.133,2.146-1.989,3.159c-0.859,1.016-1.755,1.872-2.691,2.574   s-1.872,1.053-2.808,1.053h-22.23l-2.106,0.702c-1.404,1.25-2.497,3.006-3.276,5.265c-0.782,2.263-1.404,4.68-1.872,7.254   c-0.468,2.574-0.782,5.188-0.936,7.839c-0.157,2.654-0.234,4.914-0.234,6.786v23.167c0,0.468,0.077,1.638,0.234,3.51   c0.154,1.872,0.351,3.979,0.585,6.318c0.234,2.34,0.504,4.643,0.819,6.902c0.311,2.264,0.545,4.096,0.702,5.499   c0.311,2.966,0.778,5.579,1.404,7.839c0.622,2.264,2.025,3.785,4.212,4.563c0.311,0.157,0.545,0.233,0.702,0.233   c0.153,0,0.388,0.081,0.702,0.234h21.528c2.025,0,3.861,1.211,5.499,3.627c1.638,2.42,2.457,4.563,2.457,6.436v49.607   c0,0.783-0.234,1.755-0.702,2.926c-0.468,1.17-1.133,2.263-1.989,3.275c-0.859,1.017-1.755,1.872-2.691,2.574   c-0.936,0.701-1.872,1.053-2.808,1.053h-18.72v0.234c-4.995,0-9.009-0.702-12.051-2.106c-3.042-1.403-5.813-3.118-8.307-5.147   h0.234c-7.02-5.148-12.716-12.129-17.082-20.943c-4.369-8.812-7.762-18.172-10.179-28.08c-2.42-9.904-4.059-19.85-4.914-29.835   c-0.859-9.981-1.287-18.874-1.287-26.677C176.082,269.83,176.199,264.371,176.433,259.066z M181.464,301.537   c0.779,9.751,2.3,19.422,4.563,29.016c2.26,9.594,5.459,18.604,9.594,27.027c4.131,8.424,9.554,15.057,16.263,19.891   c2.183,1.718,4.329,3.199,6.435,4.445c2.106,1.25,4.483,1.872,7.137,1.872v-60.84c0-0.153-0.234-0.234-0.702-0.234   c-3.433-1.403-5.696-3.546-6.786-6.435c-1.093-2.885-1.795-6.355-2.106-10.413c-0.157-1.404-0.391-3.276-0.702-5.616   c-0.314-2.34-0.585-4.68-0.819-7.02c-0.234-2.34-0.431-4.446-0.585-6.318c-0.157-1.872-0.234-3.042-0.234-3.51v-1.17v-6.318v-2.574   v-1.872v-2.808v-5.616v-2.106v-0.702c0-2.025,0.077-4.482,0.234-7.371c0.154-2.885,0.545-5.77,1.17-8.658   c0.622-2.885,1.404-5.616,2.34-8.19c0.936-2.574,2.259-4.64,3.978-6.201c0.311-0.311,1.715-0.936,4.212-1.872v-62.01   c-2.34,0-4.604,0.666-6.786,1.989c-2.187,1.327-4.292,2.691-6.318,4.095c-4.995,4.059-9.283,8.855-12.87,14.391   c-3.59,5.539-6.552,11.466-8.892,17.784c-2.34,6.318-4.175,12.833-5.499,19.539c-1.327,6.709-2.303,13.185-2.925,19.422   c-0.782,5.773-1.287,11.232-1.521,16.38c-0.234,5.147-0.351,10.453-0.351,15.911C180.294,283.092,180.682,291.789,181.464,301.537z    M230.37,166.168v61.776h18.018c0.936,0,1.832-0.662,2.691-1.989c0.855-1.324,1.287-2.457,1.287-3.393V171.55   c0-0.936-0.392-2.065-1.17-3.393c-0.782-1.324-1.638-1.989-2.574-1.989H230.37z M230.37,322.948v60.606h18.018   c0.936,0,1.832-0.703,2.691-2.106c0.855-1.404,1.287-2.493,1.287-3.276v-49.607c0-1.09-0.392-2.301-1.17-3.627   c-0.782-1.324-1.638-1.989-2.574-1.989H230.37z"/></g></svg>