<svg xmlns="http://www.w3.org/2000/svg" xmlns:xlink="http://www.w3.org/1999/xlink" width="1920" zoomAndPan="magnify" viewBox="0 0 1440 809.999993" height="1080" preserveAspectRatio="xMidYMid meet" version="1.0"><rect x="-144" width="1728" fill="#ffffff" y="-80.999999" height="971.999992" fill-opacity="1"/><rect x="-144" width="1728" fill="#ffffff" y="-80.999999" height="971.999992" fill-opacity="1"/><rect x="-144" width="1728" fill="#ffffff" y="-80.999999" height="971.999992" fill-opacity="1"/><path fill="#becfcf" d="M 1057.621094 619.214844 C 1057.621094 640.089844 1034.152344 642.6875 1034.152344 642.6875 L 820.308594 642.6875 C 820.308594 642.6875 802.0625 634.863281 799.441406 619.214844 C 799.441406 619.214844 798.28125 608.921875 803.003906 600.089844 L 488.511719 600.089844 C 473.523438 600.089844 459.078125 594.453125 448.042969 584.308594 L 199.457031 355.714844 C 176.054688 334.183594 191.285156 295.105469 223.078125 295.105469 L 366.972656 295.105469 L 605.574219 473.453125 L 1032.796875 473.453125 L 1032.796875 590.539062 L 1041.953125 590.539062 C 1041.972656 590.515625 1057.621094 598.34375 1057.621094 619.214844 Z M 1075.777344 364.105469 C 1068.238281 320.984375 1051.785156 257.929688 1044.246094 233.253906 C 1036.707031 208.574219 1020.953125 198.980469 992.851562 198.980469 C 992.851562 198.980469 981.882812 177.738281 951.726562 177.738281 C 921.570312 177.738281 909.921875 201.734375 909.921875 201.734375 C 909.921875 201.734375 850.988281 196.925781 841.398438 243.546875 C 831.804688 290.167969 821.535156 344.761719 821.535156 344.761719 L 815 331.695312 L 801.933594 331.695312 L 795.835938 323.847656 C 795.835938 323.847656 774.050781 334.730469 768.828125 348.238281 C 768.828125 348.238281 781.894531 383.972656 793.214844 410.113281 C 804.53125 436.253906 852.367188 452.386719 879.636719 422.332031 L 1051 422.332031 C 1051 422.308594 1083.339844 407.207031 1075.777344 364.105469 Z M 1004.015625 794.917969 C 994.03125 792.929688 942.808594 786.917969 942.808594 723.449219 L 918.292969 723.449219 C 918.292969 767.925781 904.898438 789.5 861.5 795.421875 C 850.507812 796.929688 850.007812 809.914062 863.488281 809.914062 C 876.972656 809.914062 994.535156 809.914062 1005.023438 809.914062 C 1015.511719 809.914062 1014.003906 796.90625 1004.015625 794.917969 Z M 1004.015625 794.917969 " fill-opacity="1" fill-rule="nonzero"/><path fill="#065852" d="M 1263.59375 547.875 C 1250.8125 658.03125 1200.179688 691.976562 1200.179688 691.976562 L 1051.433594 688.085938 C 1030.828125 673.289062 1017.785156 642.667969 1017.785156 642.667969 L 1034.152344 642.667969 C 1034.152344 642.667969 1057.621094 640.195312 1057.621094 619.191406 C 1057.621094 598.1875 1042.039062 590.976562 1042.039062 590.976562 L 1046.648438 484.996094 C 1082.816406 517.824219 1091.140625 557.886719 1091.140625 557.886719 C 1097.257812 518.390625 1121.734375 471.09375 1121.734375 471.09375 C 1145.660156 520.050781 1143.976562 572.355469 1143.976562 572.355469 C 1166.222656 516.707031 1202.933594 494.457031 1202.933594 494.457031 C 1208.503906 560.113281 1190.695312 611.304688 1190.695312 611.304688 C 1236.890625 552.335938 1263.59375 547.875 1263.59375 547.875 Z M 569.800781 507.636719 L 677.203125 591.433594 L 457.59375 591.433594 C 466.859375 597.03125 477.519531 600.089844 488.511719 600.089844 L 715.988281 600.089844 L 800.554688 523.722656 L 714.503906 486.832031 Z M 918.269531 723.449219 C 918.269531 767.925781 904.875 789.5 861.476562 795.421875 C 858.332031 795.859375 856.082031 797.234375 854.726562 798.984375 L 866.808594 798.984375 C 889.710938 798.984375 911.605469 789.585938 927.382812 772.953125 L 947.160156 752.125 C 944.449219 744.167969 942.789062 734.726562 942.789062 723.449219 Z M 886.300781 384.542969 C 886.300781 384.542969 870.613281 431.03125 832.195312 437.609375 C 847.996094 440.472656 865.324219 437.019531 878.371094 423.621094 Z M 1076.804688 380.214844 C 1048.113281 410.09375 996.609375 419.492188 961.230469 422.308594 L 1051 422.308594 C 1051 422.308594 1075.078125 411.03125 1076.804688 380.214844 Z M 310.988281 295.105469 L 334.21875 374.074219 L 361.445312 372.828125 L 379.101562 304.132812 L 366.996094 295.082031 L 310.988281 295.082031 Z M 552.691406 442.503906 L 441.335938 445.042969 L 435.609375 462.21875 C 435.609375 462.21875 469.980469 481.957031 511.960938 488.949219 C 553.957031 495.988281 552.691406 442.503906 552.691406 442.503906 Z M 552.691406 442.503906 " fill-opacity="1" fill-rule="nonzero"/><path fill="#ffffff" d="M 1042.0625 591 C 1042.0625 591 847.449219 591 823.742188 591 C 796.121094 591 799.289062 618.867188 799.289062 618.867188 L 706.308594 618.867188 C 665.578125 551.984375 691.121094 496.664062 726.980469 488.164062 C 762.839844 479.660156 874.675781 455.949219 874.675781 455.949219 L 879.660156 422.308594 L 1051.019531 422.308594 C 1114.28125 523.023438 1042.0625 591 1042.0625 591 Z M 775.25 280.746094 C 778.703125 283.324219 771.339844 299.238281 771.339844 299.238281 L 801.910156 331.671875 L 824.089844 331.671875 L 837.332031 265.183594 L 795.878906 224.96875 L 700.847656 224.96875 L 762.773438 290.449219 C 762.796875 290.449219 771.796875 278.167969 775.25 280.746094 Z M 535.253906 350.46875 C 535.253906 350.46875 515.195312 335.148438 500.136719 324.546875 C 485.082031 313.945312 468.933594 307.542969 450.820312 308.941406 C 432.703125 310.339844 419.613281 303.128906 419.613281 303.128906 L 415.417969 311.453125 L 406.613281 304.789062 L 361.203125 315.628906 L 359.632812 322.449219 C 359.632812 322.449219 344.925781 337.15625 336.535156 348.699219 C 328.144531 360.261719 328.144531 386.507812 349.140625 403.820312 C 370.140625 421.152344 416.335938 452.648438 431.566406 463.160156 C 446.796875 473.652344 472.515625 467.355469 472.515625 467.355469 L 481.957031 474.699219 C 481.957031 474.699219 524.480469 407.492188 532.347656 394.902344 C 540.214844 382.292969 546.988281 379.164062 546.988281 379.164062 L 521.269531 350.097656 Z M 806.0625 798.023438 L 774.769531 768.933594 C 774.769531 768.933594 748.460938 786.089844 735 795.246094 C 721.539062 804.40625 726.390625 809.804688 726.390625 809.804688 L 779.183594 809.804688 L 815.285156 800.644531 L 815.285156 809.804688 L 850.835938 809.804688 L 849.21875 786.636719 Z M 806.0625 798.023438 " fill-opacity="1" fill-rule="nonzero"/><path fill="#f79a91" d="M 844.28125 757.566406 C 848.714844 770.308594 852.039062 786.917969 840.414062 789.695312 C 828.789062 792.472656 806.0625 798 806.0625 798 L 773.941406 769.195312 C 781.152344 763.664062 783.359375 752.582031 776.714844 739.273438 C 770.074219 725.984375 714.132812 619.609375 714.132812 619.609375 C 714.132812 619.609375 783.160156 618.84375 799.308594 618.84375 C 802.390625 630.601562 814.277344 642.25 823.914062 642.25 C 833.550781 642.25 839.472656 642.25 839.472656 642.25 L 839.84375 744.800781 C 839.84375 744.824219 839.84375 744.824219 844.28125 757.566406 Z M 556.644531 354.183594 C 539.515625 348.21875 521.246094 350.074219 521.246094 350.074219 L 546.964844 379.144531 L 574.914062 379.144531 C 574.914062 379.164062 573.800781 360.152344 556.644531 354.183594 Z M 412.753906 203.59375 C 404.710938 197.910156 373.746094 181.84375 342.785156 201.230469 C 311.820312 220.617188 317.71875 264.355469 334.980469 283.039062 C 352.246094 301.726562 369.726562 306.207031 369.726562 306.207031 L 375.625 313.070312 L 406.589844 304.789062 L 415.332031 311.410156 L 419.59375 303.128906 L 417.929688 298.40625 C 417.929688 298.40625 443.453125 290.601562 437.792969 257.03125 C 432.136719 223.4375 420.792969 209.253906 412.753906 203.59375 Z M 969.449219 53.285156 C 942.21875 6.863281 858.417969 34.578125 849.898438 59.691406 C 841.375 84.78125 841.375 114.398438 841.375 114.398438 C 841.375 114.398438 836.175781 125.0625 834.511719 129.324219 C 832.851562 133.585938 838.292969 135.007812 842.097656 136.667969 C 842.097656 136.667969 847.078125 184.140625 893.710938 176.554688 L 901.050781 201.558594 L 909.945312 201.734375 C 909.945312 201.734375 917.617188 180.007812 955.027344 177.867188 L 945.082031 149.453125 C 945.0625 149.433594 996.675781 99.710938 969.449219 53.285156 Z M 775.25 338.929688 C 782.746094 332.019531 795.222656 324.195312 795.222656 324.195312 L 771.363281 299.347656 C 771.363281 299.347656 778.550781 282.84375 775.25 280.746094 C 771.953125 278.648438 767.449219 283.148438 760.261719 294.230469 C 753.070312 305.335938 755.167969 312.832031 757.855469 317.925781 C 760.566406 323.039062 775.25 338.929688 775.25 338.929688 Z M 775.25 338.929688 " fill-opacity="1" fill-rule="nonzero"/><path fill="#4b3c38" d="M 844.585938 112.824219 C 844.585938 111.074219 846.007812 109.652344 847.753906 109.652344 C 849.503906 109.652344 850.925781 111.074219 850.925781 112.824219 C 850.925781 114.570312 849.503906 115.992188 847.753906 115.992188 C 846.007812 115.992188 844.585938 114.570312 844.585938 112.824219 Z M 837.003906 109.609375 C 837.003906 100.082031 842.511719 92.320312 849.261719 92.320312 C 854.15625 92.320312 858.398438 96.410156 860.34375 102.265625 L 865.871094 100.453125 C 858.988281 94.726562 852.039062 86.878906 847.800781 76.496094 C 836.917969 49.832031 851.230469 24.042969 874.457031 15.167969 C 897.664062 6.273438 931.46875 8.285156 946.65625 16.894531 C 946.65625 16.894531 970.148438 -0.0234375 990.492188 19.191406 C 1010.835938 38.402344 1010.550781 75.359375 983.324219 84.257812 C 983.324219 84.257812 992.71875 137.828125 945.039062 149.453125 C 945.039062 149.453125 916.542969 145.871094 900.503906 129.828125 C 900.503906 129.828125 914.839844 124.386719 913.398438 108.910156 C 912 93.808594 889.929688 95.621094 888.859375 95.710938 L 888.75 95.753906 L 887.328125 113.214844 C 887.328125 113.214844 878.195312 110.023438 868.296875 102.441406 L 860.996094 104.824219 C 861.304688 106.351562 861.5 107.972656 861.5 109.652344 C 861.5 119.183594 855.992188 126.941406 849.242188 126.941406 C 842.488281 126.941406 837.003906 119.160156 837.003906 109.609375 Z M 839.605469 109.609375 C 839.605469 117.695312 843.929688 124.296875 849.261719 124.296875 C 854.59375 124.296875 858.921875 117.71875 858.921875 109.609375 C 858.921875 101.5 854.59375 94.921875 849.261719 94.921875 C 843.929688 94.921875 839.605469 101.523438 839.605469 109.609375 Z M 859.007812 140.425781 C 856.386719 144.449219 850.007812 145.410156 849.941406 145.433594 C 849.21875 145.542969 848.738281 146.199219 848.847656 146.917969 C 848.933594 147.574219 849.503906 148.035156 850.136719 148.035156 C 850.203125 148.035156 850.269531 148.035156 850.332031 148.011719 C 850.640625 147.96875 857.9375 146.875 861.214844 141.847656 C 861.609375 141.238281 861.433594 140.425781 860.84375 140.035156 C 860.210938 139.640625 859.402344 139.816406 859.007812 140.425781 Z M 905.398438 118.070312 C 905.507812 118.089844 905.617188 118.113281 905.75 118.113281 C 906.316406 118.113281 906.84375 117.742188 907.015625 117.152344 C 908.285156 112.539062 907.824219 108.824219 905.664062 106.089844 C 901.859375 101.304688 894.277344 101.523438 893.972656 101.546875 C 893.25 101.566406 892.683594 102.179688 892.726562 102.898438 C 892.746094 103.621094 893.402344 104.234375 894.082031 104.144531 C 894.148438 104.144531 900.679688 103.949219 903.652344 107.707031 C 905.269531 109.761719 905.574219 112.691406 904.546875 116.453125 C 904.285156 117.171875 904.699219 117.894531 905.398438 118.070312 Z M 893.6875 176.535156 L 897.882812 190.828125 C 916.652344 175.15625 917.179688 167.53125 893.6875 176.535156 Z M 913.8125 199.964844 C 913.09375 199.988281 912.523438 200.578125 912.546875 201.296875 C 912.566406 201.996094 913.15625 202.566406 913.855469 202.566406 C 913.878906 202.566406 913.878906 202.566406 913.902344 202.566406 L 992.894531 200.269531 C 993.617188 200.25 994.183594 199.660156 994.160156 198.9375 C 994.140625 198.214844 993.527344 197.691406 992.828125 197.667969 Z M 816.355469 367.605469 C 816.441406 367.625 816.527344 367.625 816.617188 367.625 C 817.226562 367.625 817.773438 367.210938 817.882812 366.578125 L 821.6875 347.933594 C 821.839844 347.234375 821.378906 346.535156 820.660156 346.402344 C 819.960938 346.25 819.261719 346.707031 819.128906 347.429688 L 815.328125 366.074219 C 815.195312 366.773438 815.632812 367.449219 816.355469 367.605469 Z M 814.015625 590.515625 C 814.015625 589.796875 813.425781 589.207031 812.707031 589.207031 L 777.261719 589.207031 C 776.539062 589.207031 775.949219 589.796875 775.949219 590.515625 C 775.949219 591.238281 776.539062 591.828125 777.261719 591.828125 L 812.707031 591.828125 C 813.425781 591.828125 814.015625 591.238281 814.015625 590.515625 Z M 878.457031 429.675781 L 909.050781 294.757812 C 909.203125 294.054688 908.765625 293.355469 908.066406 293.203125 C 907.367188 293.050781 906.667969 293.488281 906.515625 294.1875 L 877.101562 423.863281 C 872.972656 429.21875 863.140625 437.804688 842.292969 438.113281 C 811.960938 438.550781 797.453125 416.125 797.453125 416.125 C 797.453125 416.125 694.378906 392.125 648.488281 387.164062 C 602.601562 382.226562 574.914062 379.164062 574.914062 379.164062 C 574.914062 379.164062 561.78125 378.730469 546.964844 379.164062 C 538.136719 382.226562 518.929688 412.800781 503.175781 439.207031 C 489.582031 455.664062 474.941406 465.019531 474.789062 465.105469 C 474.179688 465.5 474.003906 466.285156 474.375 466.898438 C 474.613281 467.289062 475.050781 467.507812 475.488281 467.507812 C 475.730469 467.507812 475.96875 467.445312 476.1875 467.3125 C 476.320312 467.226562 485.738281 461.214844 496.53125 450.375 C 490.261719 460.996094 485.015625 469.980469 481.933594 474.699219 C 490.042969 488.425781 518.253906 524.292969 574.085938 524.292969 C 629.914062 524.292969 691.035156 524.292969 691.035156 524.292969 C 691.035156 524.292969 706.417969 492.621094 726.960938 488.140625 C 747.5 483.660156 875.265625 455.683594 875.265625 455.683594 Z M 443.453125 406.289062 C 438.582031 410.878906 435.433594 413.875 435.324219 413.984375 C 434.800781 414.484375 434.777344 415.316406 435.28125 415.820312 C 435.542969 416.082031 435.871094 416.234375 436.222656 416.234375 C 436.550781 416.234375 436.878906 416.125 437.117188 415.882812 C 437.53125 415.492188 478.722656 376.257812 496.03125 362.3125 C 512.613281 348.960938 520.789062 351.296875 520.832031 351.320312 C 521.507812 351.5625 522.25 351.1875 522.492188 350.511719 C 522.734375 349.835938 522.359375 349.089844 521.683594 348.851562 C 521.488281 348.785156 518.625 347.867188 513.074219 349.527344 C 505.46875 330.121094 475.640625 319.738281 474.351562 319.300781 C 473.675781 319.058594 472.933594 319.433594 472.691406 320.109375 C 472.453125 320.785156 472.824219 321.53125 473.5 321.769531 C 473.804688 321.878906 503.351562 332.152344 510.605469 350.359375 C 506.410156 351.976562 501.011719 354.925781 494.390625 360.261719 C 482.285156 370.03125 458.597656 392.039062 445.179688 404.648438 C 445.09375 404.453125 444.984375 404.257812 444.789062 404.125 L 386.769531 360.71875 C 386.203125 360.28125 385.371094 360.414062 384.933594 360.980469 C 384.5 361.550781 384.628906 362.378906 385.199219 362.816406 L 443.214844 406.222656 C 443.300781 406.269531 443.367188 406.269531 443.453125 406.289062 Z M 427.917969 321.378906 C 430.519531 321.378906 432.617188 323.167969 432.617188 325.378906 C 432.617188 327.585938 430.496094 329.375 427.917969 329.375 C 425.316406 329.375 423.21875 327.585938 423.21875 325.378906 C 423.21875 323.167969 425.316406 321.378906 427.917969 321.378906 Z M 427.917969 323.976562 C 426.804688 323.976562 425.820312 324.632812 425.820312 325.355469 C 425.820312 326.097656 426.804688 326.730469 427.917969 326.730469 C 429.03125 326.730469 430.015625 326.078125 430.015625 325.355469 C 430.015625 324.632812 429.03125 323.976562 427.917969 323.976562 Z M 469.085938 342.335938 C 471.6875 342.335938 473.785156 344.128906 473.785156 346.335938 C 473.785156 348.542969 471.664062 350.335938 469.085938 350.335938 C 466.484375 350.335938 464.386719 348.542969 464.386719 346.335938 C 464.386719 344.128906 466.507812 342.335938 469.085938 342.335938 Z M 466.988281 346.316406 C 466.988281 347.058594 467.972656 347.691406 469.085938 347.691406 C 470.199219 347.691406 471.183594 347.035156 471.183594 346.316406 C 471.183594 345.574219 470.199219 344.9375 469.085938 344.9375 C 467.972656 344.9375 466.988281 345.59375 466.988281 346.316406 Z M 336.664062 267.785156 C 329.453125 254.976562 341.867188 246.5625 341.867188 246.5625 L 353.46875 253.359375 C 353.46875 253.359375 386.289062 232.945312 398.308594 201.296875 L 417.121094 208.09375 C 417.121094 208.09375 407.921875 183.265625 379.078125 182.457031 C 350.257812 181.648438 316.234375 194.480469 305.808594 230.105469 C 295.410156 265.753906 303.011719 321.398438 337.84375 327.804688 C 372.675781 334.207031 393.5 304.984375 361.074219 273.753906 C 361.09375 273.796875 343.875 280.613281 336.664062 267.785156 Z M 400.078125 246.039062 C 399.839844 245.359375 399.074219 245.011719 398.394531 245.273438 L 392.125 247.589844 C 391.445312 247.832031 391.097656 248.59375 391.359375 249.273438 C 391.554688 249.796875 392.058594 250.125 392.582031 250.125 C 392.738281 250.125 392.890625 250.101562 393.042969 250.039062 L 399.3125 247.722656 C 399.96875 247.457031 400.320312 246.714844 400.078125 246.039062 Z M 422.453125 241.90625 C 421.734375 241.796875 421.078125 242.300781 420.96875 243 C 420.859375 243.722656 421.363281 244.375 422.0625 244.484375 L 428.660156 245.46875 C 428.726562 245.46875 428.792969 245.492188 428.855469 245.492188 C 429.492188 245.492188 430.058594 245.03125 430.148438 244.375 C 430.257812 243.65625 429.753906 243 429.054688 242.890625 Z M 422.542969 250.910156 C 420.992188 248.902344 412.097656 239.789062 411.703125 239.394531 C 411.199219 238.890625 410.371094 238.871094 409.867188 239.371094 C 409.34375 239.875 409.34375 240.707031 409.847656 241.207031 C 413.015625 244.441406 419.308594 250.976562 420.488281 252.484375 C 420.835938 252.921875 419.527344 255.085938 417.582031 256.855469 C 417.058594 257.335938 417.015625 258.167969 417.496094 258.691406 C 417.757812 258.976562 418.105469 259.128906 418.457031 259.128906 C 418.761719 259.128906 419.089844 259.019531 419.328125 258.800781 C 420.226562 257.972656 424.707031 253.6875 422.542969 250.910156 Z M 407.792969 267.457031 C 411.289062 267.238281 417.386719 267.019531 417.40625 267.019531 L 417.320312 264.417969 C 417.320312 264.417969 411.15625 264.636719 407.640625 264.855469 C 405.257812 265.007812 404.253906 266.410156 404.121094 267.652344 C 403.925781 269.425781 405.34375 271.652344 408.90625 272.679688 C 413.453125 273.96875 415.398438 274.625 415.417969 274.648438 C 415.550781 274.691406 415.703125 274.714844 415.832031 274.714844 C 416.378906 274.714844 416.882812 274.363281 417.078125 273.816406 C 417.296875 273.140625 416.949219 272.398438 416.25 272.15625 C 416.25 272.15625 414.261719 271.5 409.628906 270.167969 C 407.464844 269.554688 406.679688 268.417969 406.722656 267.9375 C 406.722656 267.699219 407.179688 267.5 407.792969 267.457031 Z M 399.949219 235.371094 C 400.601562 235.65625 401.367188 235.351562 401.671875 234.695312 C 401.957031 234.039062 401.652344 233.273438 400.996094 232.96875 C 389.765625 228.050781 381.199219 237.121094 381.113281 237.230469 C 380.628906 237.753906 380.652344 238.585938 381.175781 239.066406 C 381.417969 239.304688 381.746094 239.414062 382.050781 239.414062 C 382.402344 239.414062 382.75 239.285156 383.011719 239 C 383.316406 238.671875 390.441406 231.199219 399.949219 235.371094 Z M 412.925781 231.132812 C 413.191406 231.394531 413.515625 231.523438 413.84375 231.523438 C 414.171875 231.523438 414.5 231.394531 414.761719 231.152344 C 414.960938 230.957031 419.65625 226.476562 427.941406 228.859375 C 428.640625 229.054688 429.359375 228.664062 429.554688 227.960938 C 429.753906 227.261719 429.359375 226.542969 428.660156 226.34375 C 418.847656 223.546875 413.167969 229.078125 412.925781 229.316406 C 412.402344 229.820312 412.402344 230.628906 412.925781 231.132812 Z M 394.417969 792.097656 C 392.605469 795.816406 394.113281 800.316406 397.804688 802.152344 C 401.347656 803.925781 405.652344 802.65625 407.660156 799.246094 L 525.046875 600.089844 L 488.492188 600.089844 Z M 1245.171875 575.238281 C 1244.691406 574.695312 1243.882812 574.648438 1243.335938 575.128906 C 1243.007812 575.414062 1235.449219 582.148438 1235.929688 591.960938 C 1236.148438 596.15625 1232.519531 599.632812 1228.324219 603.632812 C 1224.109375 607.675781 1219.34375 612.242188 1216.984375 618.820312 C 1212.023438 632.699219 1206.933594 642.449219 1195.613281 651.167969 C 1187.460938 657.441406 1182.480469 674.007812 1179.96875 684.9375 L 1166.070312 684.9375 C 1186.457031 656.042969 1191.023438 614.886719 1191.066406 614.449219 C 1191.132812 613.730469 1190.632812 613.09375 1189.910156 613.007812 C 1189.210938 612.921875 1188.554688 613.445312 1188.46875 614.167969 C 1188.425781 614.582031 1183.746094 656.566406 1162.835938 684.914062 L 1147.648438 684.914062 C 1147.800781 672.894531 1150.882812 663.605469 1153.722656 655.277344 C 1156.234375 647.890625 1158.398438 641.507812 1157.808594 634.886719 C 1156.519531 620.679688 1161.394531 601.90625 1169.171875 591.238281 C 1176.515625 581.164062 1179.136719 572.203125 1179.617188 555.722656 C 1180.054688 540.773438 1190.171875 532.183594 1190.28125 532.09375 C 1190.828125 531.636719 1190.914062 530.804688 1190.457031 530.257812 C 1189.996094 529.714844 1189.167969 529.625 1188.621094 530.085938 C 1188.160156 530.457031 1177.496094 539.460938 1177.015625 555.632812 C 1176.535156 571.699219 1174.132812 579.984375 1167.054688 589.707031 C 1158.96875 600.832031 1153.875 620.351562 1155.210938 635.125 C 1155.753906 641.203125 1153.679688 647.324219 1151.253906 654.425781 C 1148.480469 662.554688 1145.246094 672.347656 1145.046875 684.894531 L 1138.273438 684.894531 C 1146.6875 662.054688 1145.027344 578.410156 1144.960938 574.714844 C 1144.9375 573.996094 1144.371094 573.449219 1143.648438 573.449219 C 1143.648438 573.449219 1143.628906 573.449219 1143.628906 573.449219 C 1142.90625 573.46875 1142.339844 574.058594 1142.359375 574.78125 C 1142.382812 575.699219 1144.128906 664.390625 1135.476562 684.894531 L 1117.710938 684.894531 C 1117.449219 679.015625 1117.820312 671.867188 1119.742188 664.066406 C 1123.4375 648.984375 1121.644531 639.519531 1119.152344 626.429688 C 1118.148438 621.136719 1117.011719 615.148438 1116.074219 607.914062 C 1114.457031 595.480469 1116.859375 583.851562 1118.957031 573.601562 C 1121.054688 563.351562 1123.042969 553.691406 1120.660156 545.121094 C 1116.183594 528.949219 1120.160156 512.074219 1120.203125 511.921875 C 1120.378906 511.222656 1119.941406 510.523438 1119.242188 510.347656 C 1118.542969 510.171875 1117.84375 510.609375 1117.667969 511.308594 C 1117.492188 512.03125 1113.472656 528.992188 1118.148438 545.84375 C 1120.355469 553.796875 1118.519531 562.761719 1116.402344 573.097656 C 1114.257812 583.566406 1111.8125 595.414062 1113.472656 608.285156 C 1114.410156 615.609375 1115.570312 621.640625 1116.574219 626.953125 C 1119 639.714844 1120.75 648.941406 1117.210938 663.472656 C 1115.242188 671.539062 1114.828125 678.882812 1115.066406 684.914062 L 1106.5 684.914062 C 1084.367188 637.027344 1091.859375 561.492188 1091.925781 560.75 C 1091.992188 560.027344 1091.488281 559.394531 1090.769531 559.328125 C 1090.046875 559.261719 1089.414062 559.765625 1089.347656 560.488281 C 1089.261719 561.25 1081.832031 636.351562 1103.660156 684.9375 L 1095.160156 684.9375 C 1093.433594 680.980469 1090.964844 677.222656 1088.410156 673.355469 C 1085.066406 668.328125 1081.632812 663.125 1079.363281 656.875 C 1076.0625 647.824219 1076.105469 640.699219 1076.128906 632.4375 C 1076.148438 626.972656 1076.171875 621.3125 1075.253906 614.449219 C 1072.914062 597.160156 1062.46875 582.910156 1062.011719 582.300781 C 1061.574219 581.730469 1060.765625 581.601562 1060.199219 582.039062 C 1059.628906 582.472656 1059.5 583.28125 1059.9375 583.851562 C 1060.042969 583.984375 1070.425781 598.1875 1072.675781 614.800781 C 1073.570312 621.488281 1073.550781 627.039062 1073.527344 632.417969 C 1073.484375 640.570312 1073.460938 648.261719 1076.914062 657.75 C 1079.296875 664.28125 1082.8125 669.617188 1086.246094 674.773438 C 1088.582031 678.292969 1090.746094 681.59375 1092.339844 684.914062 L 1077.898438 684.914062 C 1060.789062 671.34375 1052.113281 640.832031 1050.648438 635.300781 C 1054.015625 632.261719 1056.746094 628.023438 1057.402344 622.054688 L 800.117188 622.054688 C 801.757812 627.453125 805.210938 631.761719 808.816406 635.039062 L 836.4375 740.628906 C 836.589844 741.21875 837.113281 741.609375 837.703125 741.609375 C 837.8125 741.609375 837.921875 741.589844 838.03125 741.566406 C 838.730469 741.394531 839.144531 740.671875 838.972656 739.972656 L 812.246094 637.859375 C 816.574219 641.070312 820.332031 642.6875 820.332031 642.6875 L 918.292969 642.6875 L 918.292969 723.449219 L 942.808594 723.449219 L 942.808594 642.6875 L 1034.171875 642.6875 C 1034.171875 642.6875 1041.863281 641.792969 1048.441406 637.117188 C 1050.496094 644.699219 1058.449219 670.816406 1073.878906 684.9375 L 1042.300781 684.9375 L 1042.300781 748.847656 C 1042.300781 782.308594 1069.417969 809.433594 1102.875 809.433594 L 1153.132812 809.433594 C 1186.589844 809.433594 1213.707031 782.308594 1213.707031 748.847656 L 1213.707031 684.9375 L 1182.65625 684.9375 C 1185.144531 674.359375 1189.867188 658.882812 1197.207031 653.246094 C 1208.988281 644.175781 1214.449219 633.683594 1219.453125 619.71875 C 1221.59375 613.730469 1226.140625 609.378906 1230.140625 605.53125 C 1234.597656 601.25 1238.8125 597.226562 1238.550781 591.828125 C 1238.136719 583.328125 1245 577.164062 1245.0625 577.097656 C 1245.589844 576.617188 1245.652344 575.785156 1245.171875 575.238281 Z M 464.605469 244.113281 C 464.148438 243.742188 463.972656 243.132812 464.214844 242.585938 L 472.5625 222.652344 C 474.132812 218.914062 474.941406 214.957031 474.988281 210.894531 L 475.664062 144.820312 C 475.730469 138.964844 480.363281 134.308594 486.195312 134.21875 L 669.53125 131.203125 C 672.570312 131.183594 675.234375 132.273438 677.3125 134.375 C 679.386719 136.472656 680.480469 139.246094 680.414062 142.199219 L 678.40625 222.105469 C 678.25 227.984375 673.3125 232.683594 667.457031 232.550781 L 497.539062 228.835938 C 490.523438 228.683594 483.550781 230.933594 477.957031 235.199219 L 466.179688 244.136719 C 465.941406 244.3125 465.675781 244.398438 465.394531 244.398438 C 465.132812 244.378906 464.847656 244.289062 464.605469 244.113281 Z M 468.496094 239.085938 L 476.386719 233.078125 C 482.460938 228.464844 489.933594 225.996094 497.601562 226.191406 L 667.523438 229.90625 C 672 229.996094 675.695312 226.453125 675.804688 222.019531 L 677.8125 142.109375 C 677.878906 139.882812 677.027344 137.78125 675.476562 136.210938 C 673.945312 134.65625 671.890625 133.804688 669.730469 133.804688 C 669.683594 133.804688 669.640625 133.804688 669.597656 133.804688 L 486.261719 136.820312 C 481.847656 136.886719 478.328125 140.425781 478.285156 144.84375 L 477.609375 210.914062 C 477.566406 215.308594 476.667969 219.613281 474.988281 223.65625 Z M 496.335938 158.546875 C 496.355469 158.546875 496.355469 158.546875 496.335938 158.546875 L 650.457031 157.015625 C 651.175781 157.015625 651.746094 156.425781 651.746094 155.707031 C 651.746094 154.984375 651.15625 154.414062 650.433594 154.414062 C 650.433594 154.414062 650.433594 154.414062 650.414062 154.414062 L 496.3125 155.945312 C 495.59375 155.945312 495.023438 156.535156 495.023438 157.257812 C 495.046875 157.957031 495.636719 158.546875 496.335938 158.546875 Z M 649.40625 175.902344 L 497.863281 176.929688 C 497.144531 176.929688 496.574219 177.519531 496.574219 178.238281 C 496.574219 178.960938 497.164062 179.527344 497.886719 179.527344 L 649.429688 178.5 C 650.148438 178.5 650.71875 177.910156 650.71875 177.191406 C 650.71875 176.46875 650.171875 176.011719 649.40625 175.902344 Z M 582.320312 198.433594 L 498.367188 199.964844 C 497.648438 199.988281 497.078125 200.578125 497.078125 201.296875 C 497.101562 202.019531 497.667969 202.585938 498.390625 202.585938 C 498.390625 202.585938 498.410156 202.585938 498.410156 202.585938 L 582.367188 201.058594 C 583.085938 201.035156 583.65625 200.445312 583.65625 199.722656 C 583.65625 198.980469 583.152344 198.367188 582.320312 198.433594 Z M 595.671875 198.433594 L 591.585938 198.433594 C 590.867188 198.433594 590.277344 199.023438 590.277344 199.746094 C 590.277344 200.46875 590.867188 201.058594 591.585938 201.058594 L 595.671875 201.058594 C 596.394531 201.058594 596.984375 200.46875 596.984375 199.746094 C 596.984375 199.023438 596.394531 198.433594 595.671875 198.433594 Z M 402.636719 305.835938 L 406.613281 304.765625 L 409.125 306.667969 C 411.988281 306.863281 415.023438 306.84375 417.910156 306.472656 L 419.636719 303.128906 L 417.976562 298.40625 C 417.976562 298.40625 405.78125 302.035156 397.914062 302.691406 C 393.742188 303.019531 396.886719 304.722656 402.636719 305.835938 Z M 402.636719 305.835938 " fill-opacity="1" fill-rule="nonzero"/></svg>