<?xml version="1.0" standalone="no"?>
<!DOCTYPE svg PUBLIC "-//W3C//DTD SVG 20010904//EN"
 "http://www.w3.org/TR/2001/REC-SVG-20010904/DTD/svg10.dtd">
<svg version="1.0" xmlns="http://www.w3.org/2000/svg"
 width="512.000000pt" height="512.000000pt" viewBox="0 0 512.000000 512.000000"
 preserveAspectRatio="xMidYMid meet">

<g transform="translate(0.000000,512.000000) scale(0.100000,-0.100000)"
fill="#000000" stroke="none">
<path d="M1660 4970 l0 -150 240 0 c222 0 244 -2 280 -20 26 -13 47 -34 60
-60 20 -39 20 -56 20 -1315 l0 -1277 -32 7 c-69 15 -201 65 -290 112 -300 154
-544 437 -654 755 -66 192 -67 198 -73 843 -6 570 -7 592 -28 647 -55 148
-179 255 -331 287 -34 7 -197 11 -452 11 l-400 0 0 -150 0 -150 245 0 c227 0
249 -2 285 -20 26 -13 47 -34 60 -60 19 -38 20 -58 20 -549 0 -282 5 -555 10
-612 69 -673 469 -1250 1080 -1555 130 -64 337 -136 468 -160 l92 -18 0 -558
c0 -540 -1 -560 -20 -598 -13 -26 -34 -47 -60 -60 -36 -18 -58 -20 -280 -20
l-240 0 0 -150 0 -150 900 0 900 0 0 150 0 150 -241 0 c-231 0 -243 1 -281 22
-24 14 -48 38 -59 60 -18 35 -19 67 -19 598 l0 560 22 0 c43 0 273 62 374 101
642 248 1096 797 1226 1484 19 102 21 154 25 685 4 650 2 631 78 676 41 24 45
24 288 24 l247 0 0 150 0 150 -400 0 c-255 0 -418 -4 -452 -11 -152 -32 -276
-139 -331 -287 -21 -55 -22 -77 -28 -647 -6 -645 -7 -651 -73 -843 -112 -325
-364 -611 -676 -767 -74 -38 -258 -105 -286 -105 -12 0 -14 179 -14 1275 0
1233 1 1277 19 1313 11 22 35 46 59 60 38 21 50 22 281 22 l241 0 0 150 0 150
-900 0 -900 0 0 -150z"/>
</g>
</svg>
